<svg enable-background="new 0 0 100 100" viewBox="0 0 100 125" xmlns="http://www.w3.org/2000/svg"><path d="m87.7 12.5c-.8-3.7-4.1-6.6-8.2-6.6h-42.6c-4 0-7.4 2.8-8.2 6.5h-17c-3.7.1-6.7 3-6.7 6.7v61.7c0 3.7 3 6.6 6.7 6.6h16.9c.7 3.9 4.1 6.8 8.2 6.8h42.7c3.8 0 7-2.5 8-5.8 4.2-.4 7.5-3.9 7.5-8.2v-59.6c0-4.1-3.2-7.6-7.3-8.1zm-50.8-3.7h42.7c2.5 0 4.5 1.6 5.2 3.8-3.3.8-5.8 3.5-6.3 6.8h-41.6c-3 0-5.4-2.4-5.4-5.3s2.4-5.3 5.4-5.3zm-8.2 75.7h-17c-2.1 0-3.8-1.7-3.8-3.7v-61.7c0-2.1 1.7-3.7 3.8-3.7h16.9c.6 4 4.1 7 8.2 7h41.4v55.5h-41.3c-4.1-.1-7.5 2.8-8.2 6.6zm50.8 6.9h-42.6c-3 0-5.4-2.4-5.4-5.3s2.4-5.3 5.4-5.3h41.5c.2 3.6 2.8 6.5 6.2 7.4-.9 1.8-2.8 3.2-5.1 3.2zm12.6-11.2c0 2.9-2.4 5.3-5.4 5.3s-5.4-2.4-5.4-5.3v-59.6c0-2.9 2.4-5.3 5.4-5.3s5.4 2.4 5.4 5.3z"/><g font-family="'Helvetica Neue', Helvetica, Arial-Unicode, Arial, Sans-serif" font-size="5" font-weight="bold"><text y="115">Created by Cryssac Franson Aldo.E</text><text y="120">from the Noun Project</text></g></svg>