<svg enable-background="new 0 0 395 395" viewBox="0 0 395 395" xmlns="http://www.w3.org/2000/svg"><path d="m229.412 130.862c-2.405-3.355-6.284-5.346-10.412-5.346h-1.266c-5.524 0-10.424 3.539-12.161 8.782l-27.534 83.09-27.662-83.107c-1.743-5.233-6.639-8.765-12.156-8.765h-.822c-.051 0-.104.003-.153.003-.053 0-.105-.003-.155-.003h-.998c-5.524 0-10.425 3.539-12.163 8.782l-27.533 83.09-27.661-83.107c-1.742-5.233-6.64-8.765-12.156-8.765h-1.268c-4.13 0-8.007 1.991-10.414 5.346-2.407 3.357-3.045 7.669-1.72 11.579l40.125 118.344c1.763 5.201 6.643 8.698 12.135 8.698h.53c.153 0 .303-.008.455-.014.151.006.302.014.454.014h.354c5.5 0 10.386-3.511 12.142-8.721l27.845-82.675 27.718 82.657c1.751 5.221 6.642 8.739 12.148 8.739h.527c.153 0 .303-.008.456-.014.15.006.302.014.454.014h.355c5.491 0 10.37-3.497 12.134-8.698l40.125-118.344c1.324-3.91.683-8.221-1.723-11.579z"/><path d="m347.88 232.295c-4.756-4.416-12.063-4.578-17.01-.378-8.521 7.234-19.511 11.218-30.943 11.218-26.069 0-47.277-20.51-47.277-45.721 0-25.116 21.208-45.548 47.277-45.548 11.542 0 22.522 3.916 30.921 11.027 5.087 4.306 12.625 3.995 17.339-.719l.427-.427c2.544-2.542 3.899-6.036 3.74-9.628-.161-3.592-1.822-6.952-4.58-9.258-13.371-11.184-30.366-17.344-47.848-17.344-40.598 0-73.628 32.253-73.628 71.898 0 39.739 33.03 72.07 73.628 72.07 17.454 0 34.493-6.207 47.979-17.48 2.822-2.36 4.495-5.817 4.589-9.494.098-3.678-1.393-7.22-4.087-9.723z"/><path d="m313.001 0h-231.002c-45.214 0-81.999 36.784-81.999 81.998v230.993c0 45.22 36.785 82.009 81.999 82.009h231.002c45.215 0 81.999-36.789 81.999-82.009v-230.993c0-45.214-36.784-81.998-81.999-81.998zm66.999 312.991c0 36.949-30.055 67.009-66.999 67.009h-231.002c-36.943 0-66.999-30.06-66.999-67.009v-230.993c0-36.943 30.056-66.998 66.999-66.998h231.002c36.944 0 66.999 30.055 66.999 66.998z"/></svg>