<svg xmlns="http://www.w3.org/2000/svg" xmlns:xlink="http://www.w3.org/1999/xlink" viewBox="0 0 253.77 286.25"><defs><style>.cls-1{fill:none;}.cls-2,.cls-7{fill:#fff;}.cls-3{fill:#1e429a;}.cls-4{fill:#d62e27;}.cls-5{clip-path:url(#clip-path);}.cls-6{fill:#005193;}.cls-7{font-size:31px;font-family:SFProDisplay-Medium, SF Pro Display;font-weight:500;letter-spacing:-0.02em;}.cls-8{letter-spacing:-0.04em;}.cls-9{letter-spacing:-0.05em;}.cls-10{letter-spacing:-0.04em;}.cls-11{letter-spacing:-0.02em;}</style><clipPath id="clip-path"><rect class="cls-1" x="54.62" y="72.34" width="148.36" height="159.01" rx="17.31"/></clipPath></defs><g id="logos"><path class="cls-2" d="M174.72,85.2h-6.33V56.39c0-7-5.43-12.74-12.11-12.74h-3.86V37h3.86c10.16,0,18.44,8.69,18.44,19.38Z"/><path class="cls-2" d="M85.38,85.2H79.06V56.39C79.06,45.7,87.33,37,97.5,37h3.85v6.64H97.5c-6.68,0-12.12,5.72-12.12,12.74Z"/><path class="cls-2" d="M143,45.32H110.75a5,5,0,0,1,0-10H143a5,5,0,0,1,0,10Z"/><path class="cls-2" d="M85.05,222.8v14a7.17,7.17,0,0,0,6.89,6.87c3.49,0,5.34-3.2,5.34-6.87v-8.39Z"/><path class="cls-2" d="M166.57,222.8v14a7.17,7.17,0,0,1-6.89,6.87c-3.49,0-5.34-3.2-5.34-6.87v-8.39Z"/><rect class="cls-2" x="54.4" y="73.16" width="148.36" height="156.88" rx="17.19"/><path class="cls-3" d="M202.74,93.58q0,1.31,0,2.61c-1.77,67.55-68.14,120.37-148.31,118.1,1.12,10.07,7,17.88,18.84,17.88H184.71c10,0,18-8.63,18-19.28V93.58Z"/><path class="cls-4" d="M137.7,132.07a9,9,0,0,0-1.18-3.61,7.7,7.7,0,0,0-.82-1.2,5.72,5.72,0,0,0-.37-.46,10.12,10.12,0,0,0-1.39-1.22c-.18-.14-.37-.27-.57-.4a12.53,12.53,0,0,0-1.53-.85l-.71-.3a14.94,14.94,0,0,0-1.82-.61l-.4-.11a23.23,23.23,0,0,0-5.39-.61h-6v22.48C131.56,145.61,138.92,142.81,137.7,132.07Z"/><path class="cls-4" d="M136.25,107c0-6.94-5-9.66-12.32-9.66a28.85,28.85,0,0,0-6.4.53v19h6.57C131.75,116.91,136.25,112.69,136.25,107Z"/><path class="cls-4" d="M184.54,70.61H70.63c-8.95,0-16.21,7.9-16.21,17.65V190.45C133.23,191.58,198,142.3,200,79.19A18.6,18.6,0,0,0,184.54,70.61Zm-46.6,78c-6.55,4.24-18.67,3.36-24.43,2.64-1.23-.11-2.35-.24-3.22-.36V92.68a66.71,66.71,0,0,1,13.23-1.23c7.23,0,11.9,1.32,15.39,4.3,2.91,2.28,4.66,5.8,4.66,10.45,0,5.7-3.58,10.71-9.49,13v.18c5.33,1.4,11.57,6,11.57,14.83a16.67,16.67,0,0,1-1.84,7.72c-.16.33-.36.66-.55,1s-.38.68-.6,1A16.17,16.17,0,0,1,137.94,148.6Z"/><g class="cls-5"><path class="cls-6" d="M67.55,202.72c-3.91,0-7.57-.15-11.33-.45l-1.15-.1.19-2.29,1.15.09c3.7.31,7.51.43,11.14.45,2.33,0,4.72-.07,7.11-.2l1.15-.06.12,2.3-1.15.07C72.35,202.66,69.92,202.72,67.55,202.72Zm24.53-2.22-.43-2.27,1.13-.21a141.76,141.76,0,0,0,17.69-4.56l1.1-.36.71,2.19-1.09.36a144.19,144.19,0,0,1-18,4.63Zm35.31-11.23-1-2.09,1-.49a142.52,142.52,0,0,0,16-8.86l1-.62,1.25,1.94-1,.63a147.23,147.23,0,0,1-16.24,9Zm31.33-19.78-1.48-1.76.88-.75a134.62,134.62,0,0,0,13.13-12.69l.77-.85,1.71,1.55-.77.85a139.27,139.27,0,0,1-13.35,12.91Zm25.06-27.31-1.91-1.29.64-1a123.06,123.06,0,0,0,9.1-15.81l.5-1,2.08,1-.5,1a127,127,0,0,1-9.27,16.11Zm16.33-33.26-2.2-.67.33-1.1a112.23,112.23,0,0,0,3.86-17.81l.15-1.14,2.28.3-.15,1.14a114.28,114.28,0,0,1-3.93,18.17Z"/></g><text class="cls-7" transform="translate(28.23 272.27)">Bole<tspan class="cls-8" x="56.07" y="0">t</tspan><tspan x="64.86" y="0">os</tspan><tspan class="cls-9" x="95.2" y="0">.</tspan><tspan x="101.74" y="0">com.</tspan><tspan class="cls-10" x="165.29" y="0">p</tspan><tspan class="cls-11" x="181.6" y="0">y</tspan></text></g></svg>