<svg id="Layer_1" data-name="Layer 1" xmlns="http://www.w3.org/2000/svg" xmlns:xlink="http://www.w3.org/1999/xlink" viewBox="0 0 215 63.15"><defs><style>.cls-1{fill:none;}.cls-2{fill:#fff;}.cls-3{fill:#183660;}.cls-4{fill:#d62e27;}.cls-5{clip-path:url(#clip-path);}.cls-6{fill:#005193;}</style><clipPath id="clip-path"><rect class="cls-1" x="89.94" y="19.75" width="26.12" height="28" rx="3.05"/></clipPath></defs><path class="cls-2" d="M111.09,22H110V16.94a2.19,2.19,0,0,0-2.13-2.24h-.68V13.53h.68a3.34,3.34,0,0,1,3.25,3.41Z"/><path class="cls-2" d="M95.36,22H94.25V16.94a3.33,3.33,0,0,1,3.24-3.41h.68V14.7h-.68a2.2,2.2,0,0,0-2.13,2.24Z"/><path class="cls-2" d="M105.51,15H99.83a.88.88,0,0,1,0-1.75h5.68a.88.88,0,0,1,0,1.75Z"/><path class="cls-2" d="M95.3,46.24V48.7a1.26,1.26,0,0,0,1.21,1.21c.62,0,.94-.56.94-1.21V47.22Z"/><path class="cls-2" d="M109.65,46.24V48.7a1.26,1.26,0,0,1-1.21,1.21c-.61,0-.94-.56-.94-1.21V47.22Z"/><rect class="cls-2" x="89.91" y="19.6" width="26.12" height="27.91" rx="3.04"/><path class="cls-3" d="M116,23.49V24c-.32,11.89-12,21.19-26.11,20.79a3.17,3.17,0,0,0,3.31,3.15h19.63A3.29,3.29,0,0,0,116,44.5v-21Z"/><path class="cls-4" d="M104.57,30.27a1.56,1.56,0,0,0-.21-.64,1.53,1.53,0,0,0-.14-.21.27.27,0,0,0-.07-.08,1.7,1.7,0,0,0-.24-.22l-.1-.07-.27-.15-.13,0a2.39,2.39,0,0,0-.32-.11l-.07,0a4.07,4.07,0,0,0-1-.1h-1v3.95C103.49,32.65,104.79,32.16,104.57,30.27Z"/><path class="cls-4" d="M104.31,25.85c0-1.22-.87-1.7-2.16-1.7a5.67,5.67,0,0,0-1.13.09V27.6h1.16C103.52,27.6,104.31,26.86,104.31,25.85Z"/><path class="cls-4" d="M112.82,19.45H92.76a3,3,0,0,0-2.85,3.1v18c13.87.19,25.27-8.48,25.62-19.59A3.26,3.26,0,0,0,112.82,19.45Zm-8.21,13.73c-1.15.74-3.28.59-4.3.46l-.57-.06V23.33a12.13,12.13,0,0,1,2.33-.21,3.94,3.94,0,0,1,2.71.75,2.21,2.21,0,0,1,.82,1.84A2.46,2.46,0,0,1,103.93,28v0a2.65,2.65,0,0,1,2,2.61,3,3,0,0,1-.32,1.36l-.1.18c0,.06-.07.12-.11.17A2.84,2.84,0,0,1,104.61,33.18Z"/><g class="cls-5"><path class="cls-6" d="M92.22,42.71c-.69,0-1.33,0-2-.08l-.2,0,0-.4h.2c.65.06,1.32.08,2,.08l1.25,0,.2,0,0,.41h-.21C93.06,42.69,92.64,42.71,92.22,42.71Zm4.32-.4-.08-.39.2,0a26,26,0,0,0,3.12-.8L100,41l.13.39-.2.06a26.66,26.66,0,0,1-3.16.82Zm6.22-2-.18-.37.18-.09a24.11,24.11,0,0,0,2.82-1.56l.17-.1.22.34-.17.11a27.37,27.37,0,0,1-2.86,1.58Zm5.51-3.48-.26-.32.16-.13a24.33,24.33,0,0,0,2.31-2.23l.13-.15.3.27-.13.15a25.19,25.19,0,0,1-2.35,2.27Zm4.41-4.81-.33-.23.11-.17a22.7,22.7,0,0,0,1.6-2.78l.09-.19.37.18-.09.18a22.9,22.9,0,0,1-1.63,2.84Zm2.88-5.86-.39-.12.06-.19a20.48,20.48,0,0,0,.68-3.14l0-.2.4.06,0,.2a20.33,20.33,0,0,1-.69,3.2Z"/></g><path class="cls-2" d="M33.14,38a7,7,0,0,1-.22,1.9,2.87,2.87,0,0,1-.68,1.27,2.6,2.6,0,0,1-1.16.72,5.68,5.68,0,0,1-1.69.22H25.75V26h3.6a3.63,3.63,0,0,1,2.68.9,3.69,3.69,0,0,1,.9,2.71v1a4.76,4.76,0,0,1-.37,2,1.81,1.81,0,0,1-1.23,1,1.87,1.87,0,0,1,.74.35,2.33,2.33,0,0,1,.58.63,3.12,3.12,0,0,1,.36.87,4,4,0,0,1,.13,1.07Zm-2.23-8.2a3,3,0,0,0-.09-.75,1.65,1.65,0,0,0-.27-.6,1.43,1.43,0,0,0-.5-.41,1.89,1.89,0,0,0-.75-.14H27.75v4.91h1.38a1.69,1.69,0,0,0,1.4-.5,2.45,2.45,0,0,0,.39-1.52Zm.21,6.78a2.27,2.27,0,0,0-.12-.75,2,2,0,0,0-.34-.62,1.62,1.62,0,0,0-.55-.41,1.79,1.79,0,0,0-.75-.15H27.75v5.53h1.63a3.26,3.26,0,0,0,.73-.08,1.07,1.07,0,0,0,.56-.31,1.48,1.48,0,0,0,.34-.65A4.17,4.17,0,0,0,31.12,38Z"/><path class="cls-2" d="M35.57,31.35a9.28,9.28,0,0,1,.14-1.61,3.49,3.49,0,0,1,.52-1.35,2.84,2.84,0,0,1,1.06-.93,4,4,0,0,1,1.77-.35,3.91,3.91,0,0,1,1.78.35,2.81,2.81,0,0,1,1.07.94,3.84,3.84,0,0,1,.52,1.35,9,9,0,0,1,.13,1.58v6.73a9.18,9.18,0,0,1-.13,1.6A3.67,3.67,0,0,1,41.9,41a2.7,2.7,0,0,1-1.07.93,3.9,3.9,0,0,1-1.77.34,4,4,0,0,1-1.78-.35A2.67,2.67,0,0,1,36.22,41a3.56,3.56,0,0,1-.52-1.35,10.23,10.23,0,0,1-.13-1.59Zm3.49-2.29a1.42,1.42,0,0,0-.79.19,1.1,1.1,0,0,0-.43.5,2.23,2.23,0,0,0-.2.73,8.18,8.18,0,0,0,0,.88v6.69a7.94,7.94,0,0,0,0,.85,2.12,2.12,0,0,0,.19.73,1.28,1.28,0,0,0,.44.51,1.44,1.44,0,0,0,.8.19h0a1.4,1.4,0,0,0,.76-.21,1.17,1.17,0,0,0,.43-.5,2,2,0,0,0,.2-.72,8.19,8.19,0,0,0,0-.87v-6.7c0-.29,0-.58,0-.85a2.23,2.23,0,0,0-.19-.73,1.28,1.28,0,0,0-.44-.51A1.47,1.47,0,0,0,39.06,29.06Z"/><path class="cls-2" d="M45.37,42.1V27.31h2V40.18h3.9V42.1Z"/><path class="cls-2" d="M53.17,42.1V27.32h6.06v2h-4v4.31h3.39v2H55.18v4.63h4V42.1Z"/><path class="cls-2" d="M65.35,29.27V42.1h-2V29.27h-2.5V27.32h7v1.95Z"/><path class="cls-2" d="M69.24,31.35a9.28,9.28,0,0,1,.14-1.61,3.49,3.49,0,0,1,.52-1.35A2.84,2.84,0,0,1,71,27.46a4.7,4.7,0,0,1,3.56,0,2.85,2.85,0,0,1,1.06.94,3.84,3.84,0,0,1,.52,1.35,9,9,0,0,1,.13,1.58v6.73a9.18,9.18,0,0,1-.13,1.6A3.67,3.67,0,0,1,75.57,41a2.67,2.67,0,0,1-1.06.93,4.76,4.76,0,0,1-3.56,0A2.67,2.67,0,0,1,69.89,41a3.39,3.39,0,0,1-.51-1.35,9.13,9.13,0,0,1-.14-1.59Zm3.49-2.29a1.36,1.36,0,0,0-.78.19,1.07,1.07,0,0,0-.44.5,2.23,2.23,0,0,0-.2.73,8.18,8.18,0,0,0,0,.88v6.69c0,.29,0,.57,0,.85a2.12,2.12,0,0,0,.19.73,1.28,1.28,0,0,0,.44.51,1.44,1.44,0,0,0,.8.19h0a1.36,1.36,0,0,0,.75-.21,1.26,1.26,0,0,0,.44-.5,2.24,2.24,0,0,0,.19-.72,8.19,8.19,0,0,0,0-.87v-6.7c0-.29,0-.58,0-.85a2.23,2.23,0,0,0-.19-.73,1.28,1.28,0,0,0-.44-.51A1.47,1.47,0,0,0,72.73,29.06Z"/><path class="cls-2" d="M85.87,38.49a4,4,0,0,1-.79,2.81,3.4,3.4,0,0,1-2.7,1A5.06,5.06,0,0,1,80.64,42a2.53,2.53,0,0,1-1.07-.77A3,3,0,0,1,79,40a7.8,7.8,0,0,1-.15-1.61v-.91h2v.88a5.34,5.34,0,0,0,.06.86,1.47,1.47,0,0,0,.22.6,1,1,0,0,0,.45.36,2,2,0,0,0,.75.11,1.34,1.34,0,0,0,1.18-.47,2.18,2.18,0,0,0,.31-1.36,4.69,4.69,0,0,0-.07-.88,2.66,2.66,0,0,0-.21-.69,2,2,0,0,0-.39-.55,3.31,3.31,0,0,0-.56-.44l-1.4-.88a7.55,7.55,0,0,1-1.12-.87,3.26,3.26,0,0,1-.68-.88,3.39,3.39,0,0,1-.33-1A8.33,8.33,0,0,1,79,31v-.26A3.76,3.76,0,0,1,79.87,28a3.49,3.49,0,0,1,2.57-.89,3.22,3.22,0,0,1,2.58.95,4,4,0,0,1,.81,2.72v1.1h-2V30.62a3,3,0,0,0-.09-.62,1.29,1.29,0,0,0-.24-.5,1.06,1.06,0,0,0-.43-.32,1.48,1.48,0,0,0-.63-.12,1.51,1.51,0,0,0-.67.14,1.24,1.24,0,0,0-.44.38,1.63,1.63,0,0,0-.24.57,3.21,3.21,0,0,0,0,.71v.29a2.92,2.92,0,0,0,.07.61,2,2,0,0,0,.19.54,1.67,1.67,0,0,0,.36.49,2.83,2.83,0,0,0,.59.44l1.25.72a5.24,5.24,0,0,1,1.16.87,3.47,3.47,0,0,1,.72,1A5,5,0,0,1,85.74,37,10.27,10.27,0,0,1,85.87,38.49Z"/><path class="cls-2" d="M127.35,32.31a6.1,6.1,0,0,1-.25,1.91,2.92,2.92,0,0,1-.76,1.2,2.66,2.66,0,0,1-1.2.63,6.67,6.67,0,0,1-1.61.18h-1.4V42.1h-2V26h3.5a5.65,5.65,0,0,1,1.54.19,2.9,2.9,0,0,1,1.18.65,3,3,0,0,1,.75,1.19,5.35,5.35,0,0,1,.26,1.82Zm-2-2.44a2.26,2.26,0,0,0-.37-1.41,1.56,1.56,0,0,0-1.32-.49h-1.5v6.34h1.39a2.9,2.9,0,0,0,.84-.11,1.28,1.28,0,0,0,.56-.34,1.57,1.57,0,0,0,.31-.62,4.19,4.19,0,0,0,.09-.93Z"/><path class="cls-2" d="M134.78,42.1l-.44-2.84h-3.06l-.43,2.84h-2.06l2.63-14.79h2.78l2.62,14.79Zm-3.21-4.69h2.48l-1.25-8.07Z"/><path class="cls-2" d="M138.78,42.1V27.32h3.43a5.19,5.19,0,0,1,1.56.2,2.56,2.56,0,0,1,1.09.66,2.86,2.86,0,0,1,.64,1.18,6.28,6.28,0,0,1,.21,1.74v1.56a3.2,3.2,0,0,1-.45,1.7,3.73,3.73,0,0,1-1.14,1.23,3.44,3.44,0,0,1,.53.44,2.18,2.18,0,0,1,.35.54,3,3,0,0,1,.24.72,9.19,9.19,0,0,1,.14,1l.2,2.09a3.86,3.86,0,0,0,.2,1c.11.28.21.54.32.76H144c0-.06-.06-.15-.11-.27s-.09-.25-.13-.4a4.71,4.71,0,0,1-.13-.48,5.07,5.07,0,0,1-.09-.54l-.18-2.08a3.16,3.16,0,0,0-.22-1,2.23,2.23,0,0,0-.38-.65,1.29,1.29,0,0,0-.47-.35,1.59,1.59,0,0,0-.51-.1h-1V42.1Zm4.9-11a3.91,3.91,0,0,0-.1-.94,1.5,1.5,0,0,0-.29-.55.94.94,0,0,0-.47-.25,2.35,2.35,0,0,0-.62-.07h-1.41v5h1.39a1.67,1.67,0,0,0,.65-.13,1.35,1.35,0,0,0,.47-.35,1.53,1.53,0,0,0,.28-.52,2,2,0,0,0,.1-.65Z"/><path class="cls-2" d="M153.36,42.1l-.45-2.84h-3l-.44,2.84h-2L150,27.31h2.78L155.4,42.1Zm-3.22-4.69h2.49l-1.25-8.07Z"/><path class="cls-2" d="M160.33,34.3h3.57v3.94a7.31,7.31,0,0,1-.14,1.49,3.5,3.5,0,0,1-.53,1.3,2.83,2.83,0,0,1-1.07.91,3.89,3.89,0,0,1-1.76.34,4,4,0,0,1-1.78-.35,2.61,2.61,0,0,1-1.06-.93,3.72,3.72,0,0,1-.51-1.35,10.23,10.23,0,0,1-.13-1.59V31.35a9.28,9.28,0,0,1,.14-1.61,3.49,3.49,0,0,1,.52-1.35,2.76,2.76,0,0,1,1.06-.93,3.88,3.88,0,0,1,1.76-.35,4,4,0,0,1,1.78.35,2.85,2.85,0,0,1,1.07.92,3.74,3.74,0,0,1,.52,1.3,8.18,8.18,0,0,1,.13,1.49v.71h-2v-.7a5.16,5.16,0,0,0-.05-.79,1.75,1.75,0,0,0-.2-.67,1.2,1.2,0,0,0-.44-.48,1.45,1.45,0,0,0-.78-.18,1.41,1.41,0,0,0-.78.19,1.1,1.1,0,0,0-.43.5,2.23,2.23,0,0,0-.2.73,8.18,8.18,0,0,0-.05.88v6.69a7.94,7.94,0,0,0,0,.85,2.37,2.37,0,0,0,.18.73,1.28,1.28,0,0,0,.44.51,1.44,1.44,0,0,0,.8.19,1.49,1.49,0,0,0,.75-.16,1.32,1.32,0,0,0,.45-.46,2,2,0,0,0,.21-.68,5.1,5.1,0,0,0,.06-.8v-2h-1.54Z"/><path class="cls-2" d="M173.69,27.32V38.48a7.41,7.41,0,0,1-.15,1.55,2.85,2.85,0,0,1-.52,1.2A2.55,2.55,0,0,1,172,42a5.81,5.81,0,0,1-3.5,0,2.51,2.51,0,0,1-1.06-.78,3,3,0,0,1-.52-1.2,8.19,8.19,0,0,1-.14-1.55V27.32h2V38.44c0,.28,0,.54,0,.77a1.75,1.75,0,0,0,.18.61,1,1,0,0,0,.44.39,2.41,2.41,0,0,0,1.62,0,.89.89,0,0,0,.44-.39,1.41,1.41,0,0,0,.19-.61c0-.23,0-.49,0-.77V27.32Z"/><path class="cls-2" d="M181.62,42.1l-.44-2.84h-3.06l-.43,2.84h-2.05l2.62-14.79H181l2.62,14.79Zm-3.21-4.69h2.48l-1.25-8.07Z"/><path class="cls-2" d="M188.81,36.57V42.1h-2V36.57l-3-9.25H186l1.81,6.44,1.9-6.44h2Z"/></svg>