<svg xmlns="http://www.w3.org/2000/svg" xmlns:xlink="http://www.w3.org/1999/xlink" width="202.944" height="202.944" viewBox="0 0 202.944 202.944">
  <defs>
    <filter id="Trazado_5063" x="0" y="0" width="202.944" height="202.944" filterUnits="userSpaceOnUse">
      <feOffset dy="3" input="SourceAlpha"/>
      <feGaussianBlur stdDeviation="3" result="blur"/>
      <feFlood flood-opacity="0.161"/>
      <feComposite operator="in" in2="blur"/>
      <feComposite in="SourceGraphic"/>
    </filter>
    <filter id="Elipse_10" x="27" y="28.762" width="148" height="148" filterUnits="userSpaceOnUse">
      <feOffset dy="3" input="SourceAlpha"/>
      <feGaussianBlur stdDeviation="3" result="blur-2"/>
      <feFlood flood-opacity="0.161"/>
      <feComposite operator="in" in2="blur-2"/>
      <feComposite in="SourceGraphic"/>
    </filter>
    <filter id="Icon_awesome-shuttle-van" x="38.077" y="92.472" width="106.121" height="72.939" filterUnits="userSpaceOnUse">
      <feOffset dy="3" input="SourceAlpha"/>
      <feGaussianBlur stdDeviation="3" result="blur-3"/>
      <feFlood flood-opacity="0.161"/>
      <feComposite operator="in" in2="blur-3"/>
      <feComposite in="SourceGraphic"/>
    </filter>
    <filter id="Icon_awesome-bus-alt" x="69.626" y="45.012" width="96.329" height="96.329" filterUnits="userSpaceOnUse">
      <feOffset dy="3" input="SourceAlpha"/>
      <feGaussianBlur stdDeviation="3" result="blur-4"/>
      <feFlood flood-opacity="0.161"/>
      <feComposite operator="in" in2="blur-4"/>
      <feComposite in="SourceGraphic"/>
    </filter>
  </defs>
  <g id="Grupo_15" data-name="Grupo 15" transform="translate(9 6)">
    <g id="Grupo_11" data-name="Grupo 11">
      <g transform="matrix(1, 0, 0, 1, -9, -6)" filter="url(#Trazado_5063)">
        <g id="Trazado_5063-2" data-name="Trazado 5063" transform="translate(9 6)" fill="#4b7db8">
          <path d="M 92.47222900390625 184.4443359375 C 86.23170471191406 184.4443359375 79.99525451660156 183.815673828125 73.93608856201172 182.5757904052734 C 68.03118133544922 181.3674468994141 62.22291946411133 179.5644836425781 56.67263412475586 177.2169036865234 C 51.22301483154297 174.9119110107422 45.96682357788086 172.0589294433594 41.0500373840332 168.7372131347656 C 36.17984771728516 165.4469757080078 31.6001091003418 161.6683654785156 27.43803787231445 157.5063171386719 C 23.27599143981934 153.34423828125 19.49737167358398 148.7645263671875 16.20713424682617 143.8943328857422 C 12.88541984558105 138.9775543212891 10.03244304656982 133.7213287353516 7.727443218231201 128.2717132568359 C 5.379871845245361 122.7214508056641 3.576895713806152 116.9131927490234 2.3685622215271 111.0082855224609 C 1.128681421279907 104.9491424560547 0.5000147223472595 98.71269226074219 0.5000147223472595 92.47216796875 C 0.5000147223472595 86.23164367675781 1.128681421279907 79.99519348144531 2.3685622215271 73.93605041503906 C 3.576895713806152 68.03114318847656 5.379871845245361 62.22288131713867 7.727443218231201 56.6726188659668 C 10.03244304656982 51.22299957275391 12.88541984558105 45.9667854309082 16.20713424682617 41.05000305175781 C 19.49737167358398 36.1798095703125 23.27599143981934 31.60009574890137 27.43803787231445 27.43802452087402 C 31.6001091003418 23.27597808837891 36.17984771728516 19.49735832214355 41.0500373840332 16.20712089538574 C 45.96682357788086 12.88540649414062 51.22301483154297 10.03242969512939 56.67263412475586 7.727429866790771 C 62.22291946411133 5.379858493804932 68.03118133544922 3.576882362365723 73.93608856201172 2.36854887008667 C 79.99525451660156 1.128667950630188 86.23170471191406 0.5000013113021851 92.47222900390625 0.5000013113021851 C 98.71275329589844 0.5000013113021851 104.9492034912109 1.128667950630188 111.0083694458008 2.36854887008667 C 116.9132766723633 3.576882362365723 122.7215347290039 5.379858493804932 128.2718048095703 7.727429866790771 C 133.7214508056641 10.03242969512939 138.9776306152344 12.88540649414062 143.8944244384766 16.20712089538574 C 148.7646026611328 19.49735832214355 153.3443450927734 23.27597808837891 157.5064239501953 27.43802452087402 C 161.6684722900391 31.60009574890137 165.4471130371094 36.1798095703125 168.7373504638672 41.05000305175781 C 172.0590667724609 45.9667854309082 174.9120330810547 51.22299957275391 177.217041015625 56.6726188659668 C 179.5646057128906 62.22288131713867 181.3675842285156 68.03114318847656 182.5759124755859 73.93605041503906 C 183.8157958984375 79.99519348144531 184.4444732666016 86.23164367675781 184.4444732666016 92.47216796875 C 184.4444732666016 98.71269226074219 183.8157958984375 104.9491424560547 182.5759124755859 111.0082855224609 C 181.3675842285156 116.9131927490234 179.5646057128906 122.7214508056641 177.217041015625 128.2717132568359 C 174.9120330810547 133.7213287353516 172.0590667724609 138.9775543212891 168.7373504638672 143.8943328857422 C 165.4471130371094 148.7645263671875 161.6684722900391 153.34423828125 157.5064239501953 157.5063171386719 C 153.3443450927734 161.6683654785156 148.7646026611328 165.4469757080078 143.8944244384766 168.7372131347656 C 138.9776306152344 172.0589294433594 133.7214508056641 174.9119110107422 128.2718048095703 177.2169036865234 C 122.7215347290039 179.5644836425781 116.9132766723633 181.3674468994141 111.0083694458008 182.5757904052734 C 104.9492034912109 183.815673828125 98.71275329589844 184.4443359375 92.47222900390625 184.4443359375 Z" stroke="none"/>
          <path d="M 92.47222900390625 1 C 86.26529693603516 1 80.06256103515625 1.625259399414062 74.03632354736328 2.8583984375 C 68.16374969482422 4.06011962890625 62.38729858398438 5.85321044921875 56.86741638183594 8.18792724609375 C 51.447509765625 10.48036193847656 46.219970703125 13.31777954101562 41.32992553710938 16.62142944335938 C 36.48611450195312 19.89385986328125 31.93115234375 23.65202331542969 27.79158020019531 27.79158020019531 C 23.65203857421875 31.93113708496094 19.89384460449219 36.48609924316406 16.62141418457031 41.32991027832031 C 13.31777954101562 46.21992492675781 10.4803466796875 51.44749450683594 8.187911987304688 56.86738586425781 C 5.85321044921875 62.38726043701172 4.060104370117188 68.16371917724609 2.8583984375 74.03628540039062 C 1.625259399414062 80.06252288818359 0.9999847412109375 86.26523590087891 0.9999847412109375 92.47216796875 C 0.9999847412109375 98.67910003662109 1.625259399414062 104.8818130493164 2.8583984375 110.9080505371094 C 4.060104370117188 116.7806167602539 5.85321044921875 122.5570678710938 8.187911987304688 128.0769500732422 C 10.4803466796875 133.496826171875 13.31777954101562 138.7244110107422 16.62141418457031 143.6144256591797 C 19.89384460449219 148.4582366943359 23.65203857421875 153.01318359375 27.79158020019531 157.1527709960938 C 31.93115234375 161.2923126220703 36.48611450195312 165.0504760742188 41.32992553710938 168.3229064941406 C 46.219970703125 171.6265563964844 51.447509765625 174.4639739990234 56.86741638183594 176.7564086914062 C 62.38729858398438 179.0911254882812 68.16374969482422 180.8842163085938 74.03632354736328 182.0859375 C 80.06256103515625 183.3190765380859 86.26529693603516 183.9443359375 92.47222900390625 183.9443359375 C 98.67916107177734 183.9443359375 104.8818969726562 183.3190765380859 110.9081344604492 182.0859375 C 116.7807083129883 180.8842163085938 122.5571594238281 179.0911254882812 128.0770416259766 176.7564086914062 C 133.4969177246094 174.4639739990234 138.7244873046875 171.6265563964844 143.6145172119141 168.3229064941406 C 148.4583435058594 165.0504760742188 153.0133056640625 161.2923126220703 157.1528472900391 157.1527709960938 C 161.2923889160156 153.01318359375 165.0505828857422 148.4582366943359 168.3230133056641 143.6144256591797 C 171.6266632080078 138.7244110107422 174.4640808105469 133.496826171875 176.7565155029297 128.0769500732422 C 179.0912322998047 122.5570678710938 180.8843231201172 116.7806167602539 182.0860443115234 110.9080505371094 C 183.3191833496094 104.8818130493164 183.9444427490234 98.67910003662109 183.9444427490234 92.47216796875 C 183.9444427490234 86.26523590087891 183.3191833496094 80.06252288818359 182.0860443115234 74.03628540039062 C 180.8843231201172 68.16371917724609 179.0912322998047 62.38726043701172 176.7565155029297 56.86738586425781 C 174.4640808105469 51.44749450683594 171.6266632080078 46.21992492675781 168.3230133056641 41.32991027832031 C 165.0505828857422 36.48609924316406 161.2923889160156 31.93113708496094 157.1528472900391 27.79158020019531 C 153.0133056640625 23.65202331542969 148.4583435058594 19.89385986328125 143.6145172119141 16.62142944335938 C 138.7244873046875 13.31777954101562 133.4969177246094 10.48036193847656 128.0770416259766 8.18792724609375 C 122.5571594238281 5.85321044921875 116.7807083129883 4.06011962890625 110.9081344604492 2.8583984375 C 104.8818969726562 1.625259399414062 98.67916107177734 1 92.47222900390625 1 M 92.47222900390625 0 C 143.543212890625 0 184.9444427490234 41.40121459960938 184.9444427490234 92.47216796875 C 184.9444427490234 143.5431213378906 143.543212890625 184.9443359375 92.47222900390625 184.9443359375 C 41.40122985839844 184.9443359375 -1.52587890625e-05 143.5431213378906 -1.52587890625e-05 92.47216796875 C -1.52587890625e-05 41.40121459960938 41.40122985839844 0 92.47222900390625 0 Z" stroke="none" fill="#707070"/>
        </g>
      </g>
      <g transform="matrix(1, 0, 0, 1, -9, -6)" filter="url(#Elipse_10)">
        <g id="Elipse_10-2" data-name="Elipse 10" transform="translate(36 34.76)" fill="#cecece" stroke="#f74549" stroke-width="1">
          <circle cx="65" cy="65" r="65" stroke="none"/>
          <circle cx="65" cy="65" r="64.5" fill="none"/>
        </g>
      </g>
    </g>
    <g transform="matrix(1, 0, 0, 1, -9, -6)" filter="url(#Icon_awesome-shuttle-van)">
      <path id="Icon_awesome-shuttle-van-2" data-name="Icon awesome-shuttle-van" d="M86.589,24.158,68.072,4.368A6.962,6.962,0,0,0,63,2.25H4.406A4.187,4.187,0,0,0,0,6.174V41.492a4.187,4.187,0,0,0,4.406,3.924H8.812c0,6.5,5.918,11.773,13.218,11.773s13.218-5.271,13.218-11.773H52.872c0,6.5,5.918,11.773,13.218,11.773s13.218-5.271,13.218-11.773h4.406a4.187,4.187,0,0,0,4.406-3.924V27.927a5.517,5.517,0,0,0-1.531-3.768ZM8.812,21.871V10.1H22.03V21.871ZM22.03,51.3c-3.65,0-6.609-2.635-6.609-5.886S18.38,39.53,22.03,39.53s6.609,2.635,6.609,5.886S25.68,51.3,22.03,51.3ZM44.06,21.871H30.842V10.1H44.06ZM66.09,51.3c-3.65,0-6.609-2.635-6.609-5.886S62.44,39.53,66.09,39.53,72.7,42.166,72.7,45.417,69.741,51.3,66.09,51.3ZM52.872,21.871V10.1h9.09L72.978,21.871Z" transform="translate(47.08 96.22)" fill="#00a7d9"/>
    </g>
    <g transform="matrix(1, 0, 0, 1, -9, -6)" filter="url(#Icon_awesome-bus-alt)">
      <path id="Icon_awesome-bus-alt-2" data-name="Icon awesome-bus-alt" d="M74.658,19.582H73.434V12.239C73.434,5.385,58.258,0,39.165,0S4.9,5.385,4.9,12.239v7.343H3.672A3.672,3.672,0,0,0,0,23.254V35.493a3.673,3.673,0,0,0,3.672,3.672H4.9V63.643a4.9,4.9,0,0,0,4.9,4.9v4.9a4.9,4.9,0,0,0,4.9,4.9h4.9a4.9,4.9,0,0,0,4.9-4.9v-4.9H53.851v4.9a4.9,4.9,0,0,0,4.9,4.9h4.9a4.9,4.9,0,0,0,4.9-4.9v-4.9h.979a3.861,3.861,0,0,0,3.916-3.916V39.165h1.224a3.673,3.673,0,0,0,3.672-3.672V23.254A3.672,3.672,0,0,0,74.658,19.582Zm-50.18-8.567A1.224,1.224,0,0,1,25.7,9.791H52.628a1.224,1.224,0,0,1,1.224,1.224v2.448a1.224,1.224,0,0,1-1.224,1.224H25.7a1.224,1.224,0,0,1-1.224-1.224Zm-7.343,50.18a4.9,4.9,0,1,1,4.9-4.9A4.9,4.9,0,0,1,17.135,61.195ZM36.717,44.06H19.582a4.9,4.9,0,0,1-4.9-4.9V24.478a4.9,4.9,0,0,1,4.9-4.9H36.717Zm4.9,0V19.582H58.747a4.9,4.9,0,0,1,4.9,4.9V39.165a4.9,4.9,0,0,1-4.9,4.9ZM61.195,61.195a4.9,4.9,0,1,1,4.9-4.9A4.9,4.9,0,0,1,61.195,61.195Z" transform="translate(78.63 51.01)" fill="#7b7b7b"/>
    </g>
  </g>
</svg>
