<svg xmlns="http://www.w3.org/2000/svg" xmlns:xlink="http://www.w3.org/1999/xlink" width="202.944" height="202.944" viewBox="0 0 202.944 202.944">
  <defs>
    <filter id="Trazado_5062" x="0" y="0" width="202.944" height="202.944" filterUnits="userSpaceOnUse">
      <feOffset dy="3" input="SourceAlpha"/>
      <feGaussianBlur stdDeviation="3" result="blur"/>
      <feFlood flood-opacity="0.161"/>
      <feComposite operator="in" in2="blur"/>
      <feComposite in="SourceGraphic"/>
    </filter>
    <filter id="Elipse_11" x="27.848" y="27.517" width="148" height="148" filterUnits="userSpaceOnUse">
      <feOffset dy="3" input="SourceAlpha"/>
      <feGaussianBlur stdDeviation="3" result="blur-2"/>
      <feFlood flood-opacity="0.161"/>
      <feComposite operator="in" in2="blur-2"/>
      <feComposite in="SourceGraphic"/>
    </filter>
    <filter id="Icon_simple-wechat" x="53.306" y="41.473" width="96.332" height="83.009" filterUnits="userSpaceOnUse">
      <feOffset dy="3" input="SourceAlpha"/>
      <feGaussianBlur stdDeviation="3" result="blur-3"/>
      <feFlood flood-opacity="0.161"/>
      <feComposite operator="in" in2="blur-3"/>
      <feComposite in="SourceGraphic"/>
    </filter>
    <filter id="Icon_ionic-md-person" x="43.515" y="109.293" width="63.19" height="63.19" filterUnits="userSpaceOnUse">
      <feOffset dy="3" input="SourceAlpha"/>
      <feGaussianBlur stdDeviation="3" result="blur-4"/>
      <feFlood flood-opacity="0.161"/>
      <feComposite operator="in" in2="blur-4"/>
      <feComposite in="SourceGraphic"/>
    </filter>
    <filter id="Icon_ionic-md-person-2" x="96.238" y="110.967" width="63.19" height="63.19" filterUnits="userSpaceOnUse">
      <feOffset dy="3" input="SourceAlpha"/>
      <feGaussianBlur stdDeviation="3" result="blur-5"/>
      <feFlood flood-opacity="0.161"/>
      <feComposite operator="in" in2="blur-5"/>
      <feComposite in="SourceGraphic"/>
    </filter>
  </defs>
  <g id="Grupo_13" data-name="Grupo 13" transform="translate(9 6)">
    <g id="Grupo_10" data-name="Grupo 10">
      <g transform="matrix(1, 0, 0, 1, -9, -6)" filter="url(#Trazado_5062)">
        <g id="Trazado_5062-2" data-name="Trazado 5062" transform="translate(9 6)" fill="#4b7db8">
          <path d="M 92.47222900390625 184.4443359375 C 86.23170471191406 184.4443359375 79.99525451660156 183.815673828125 73.93608856201172 182.5757904052734 C 68.03118133544922 181.3674468994141 62.22291946411133 179.5644836425781 56.67263412475586 177.2169036865234 C 51.22301483154297 174.9119110107422 45.96682357788086 172.0589294433594 41.0500373840332 168.7372131347656 C 36.17984771728516 165.4469757080078 31.6001091003418 161.6683654785156 27.43803787231445 157.5063171386719 C 23.27599143981934 153.34423828125 19.49737167358398 148.7645263671875 16.20713424682617 143.8943328857422 C 12.88541984558105 138.9775543212891 10.03244304656982 133.7213287353516 7.727443218231201 128.2717132568359 C 5.379871845245361 122.7214508056641 3.576895713806152 116.9131927490234 2.3685622215271 111.0082855224609 C 1.128681421279907 104.9491424560547 0.5000147223472595 98.71269226074219 0.5000147223472595 92.47216796875 C 0.5000147223472595 86.23164367675781 1.128681421279907 79.99519348144531 2.3685622215271 73.93605041503906 C 3.576895713806152 68.03114318847656 5.379871845245361 62.22288131713867 7.727443218231201 56.6726188659668 C 10.03244304656982 51.22299957275391 12.88541984558105 45.9667854309082 16.20713424682617 41.05000305175781 C 19.49737167358398 36.1798095703125 23.27599143981934 31.60009574890137 27.43803787231445 27.43802452087402 C 31.6001091003418 23.27597808837891 36.17984771728516 19.49735832214355 41.0500373840332 16.20712089538574 C 45.96682357788086 12.88540649414062 51.22301483154297 10.03242969512939 56.67263412475586 7.727429866790771 C 62.22291946411133 5.379858493804932 68.03118133544922 3.576882362365723 73.93608856201172 2.36854887008667 C 79.99525451660156 1.128667950630188 86.23170471191406 0.5000013113021851 92.47222900390625 0.5000013113021851 C 98.71275329589844 0.5000013113021851 104.9492034912109 1.128667950630188 111.0083694458008 2.36854887008667 C 116.9132766723633 3.576882362365723 122.7215347290039 5.379858493804932 128.2718048095703 7.727429866790771 C 133.7214508056641 10.03242969512939 138.9776306152344 12.88540649414062 143.8944244384766 16.20712089538574 C 148.7646026611328 19.49735832214355 153.3443450927734 23.27597808837891 157.5064239501953 27.43802452087402 C 161.6684722900391 31.60009574890137 165.4471130371094 36.1798095703125 168.7373504638672 41.05000305175781 C 172.0590667724609 45.9667854309082 174.9120330810547 51.22299957275391 177.217041015625 56.6726188659668 C 179.5646057128906 62.22288131713867 181.3675842285156 68.03114318847656 182.5759124755859 73.93605041503906 C 183.8157958984375 79.99519348144531 184.4444732666016 86.23164367675781 184.4444732666016 92.47216796875 C 184.4444732666016 98.71269226074219 183.8157958984375 104.9491424560547 182.5759124755859 111.0082855224609 C 181.3675842285156 116.9131927490234 179.5646057128906 122.7214508056641 177.217041015625 128.2717132568359 C 174.9120330810547 133.7213287353516 172.0590667724609 138.9775543212891 168.7373504638672 143.8943328857422 C 165.4471130371094 148.7645263671875 161.6684722900391 153.34423828125 157.5064239501953 157.5063171386719 C 153.3443450927734 161.6683654785156 148.7646026611328 165.4469757080078 143.8944244384766 168.7372131347656 C 138.9776306152344 172.0589294433594 133.7214508056641 174.9119110107422 128.2718048095703 177.2169036865234 C 122.7215347290039 179.5644836425781 116.9132766723633 181.3674468994141 111.0083694458008 182.5757904052734 C 104.9492034912109 183.815673828125 98.71275329589844 184.4443359375 92.47222900390625 184.4443359375 Z" stroke="none"/>
          <path d="M 92.47222900390625 1 C 86.26529693603516 1 80.06256103515625 1.625259399414062 74.03632354736328 2.8583984375 C 68.16374969482422 4.06011962890625 62.38729858398438 5.85321044921875 56.86741638183594 8.18792724609375 C 51.447509765625 10.48036193847656 46.219970703125 13.31777954101562 41.32992553710938 16.62142944335938 C 36.48611450195312 19.89385986328125 31.93115234375 23.65202331542969 27.79158020019531 27.79158020019531 C 23.65203857421875 31.93113708496094 19.89384460449219 36.48609924316406 16.62141418457031 41.32991027832031 C 13.31777954101562 46.21992492675781 10.4803466796875 51.44749450683594 8.187911987304688 56.86738586425781 C 5.85321044921875 62.38726043701172 4.060104370117188 68.16371917724609 2.8583984375 74.03628540039062 C 1.625259399414062 80.06252288818359 0.9999847412109375 86.26523590087891 0.9999847412109375 92.47216796875 C 0.9999847412109375 98.67910003662109 1.625259399414062 104.8818130493164 2.8583984375 110.9080505371094 C 4.060104370117188 116.7806167602539 5.85321044921875 122.5570678710938 8.187911987304688 128.0769500732422 C 10.4803466796875 133.496826171875 13.31777954101562 138.7244110107422 16.62141418457031 143.6144256591797 C 19.89384460449219 148.4582366943359 23.65203857421875 153.01318359375 27.79158020019531 157.1527709960938 C 31.93115234375 161.2923126220703 36.48611450195312 165.0504760742188 41.32992553710938 168.3229064941406 C 46.219970703125 171.6265563964844 51.447509765625 174.4639739990234 56.86741638183594 176.7564086914062 C 62.38729858398438 179.0911254882812 68.16374969482422 180.8842163085938 74.03632354736328 182.0859375 C 80.06256103515625 183.3190765380859 86.26529693603516 183.9443359375 92.47222900390625 183.9443359375 C 98.67916107177734 183.9443359375 104.8818969726562 183.3190765380859 110.9081344604492 182.0859375 C 116.7807083129883 180.8842163085938 122.5571594238281 179.0911254882812 128.0770416259766 176.7564086914062 C 133.4969177246094 174.4639739990234 138.7244873046875 171.6265563964844 143.6145172119141 168.3229064941406 C 148.4583435058594 165.0504760742188 153.0133056640625 161.2923126220703 157.1528472900391 157.1527709960938 C 161.2923889160156 153.01318359375 165.0505828857422 148.4582366943359 168.3230133056641 143.6144256591797 C 171.6266632080078 138.7244110107422 174.4640808105469 133.496826171875 176.7565155029297 128.0769500732422 C 179.0912322998047 122.5570678710938 180.8843231201172 116.7806167602539 182.0860443115234 110.9080505371094 C 183.3191833496094 104.8818130493164 183.9444427490234 98.67910003662109 183.9444427490234 92.47216796875 C 183.9444427490234 86.26523590087891 183.3191833496094 80.06252288818359 182.0860443115234 74.03628540039062 C 180.8843231201172 68.16371917724609 179.0912322998047 62.38726043701172 176.7565155029297 56.86738586425781 C 174.4640808105469 51.44749450683594 171.6266632080078 46.21992492675781 168.3230133056641 41.32991027832031 C 165.0505828857422 36.48609924316406 161.2923889160156 31.93113708496094 157.1528472900391 27.79158020019531 C 153.0133056640625 23.65202331542969 148.4583435058594 19.89385986328125 143.6145172119141 16.62142944335938 C 138.7244873046875 13.31777954101562 133.4969177246094 10.48036193847656 128.0770416259766 8.18792724609375 C 122.5571594238281 5.85321044921875 116.7807083129883 4.06011962890625 110.9081344604492 2.8583984375 C 104.8818969726562 1.625259399414062 98.67916107177734 1 92.47222900390625 1 M 92.47222900390625 0 C 143.543212890625 0 184.9444427490234 41.40121459960938 184.9444427490234 92.47216796875 C 184.9444427490234 143.5431213378906 143.543212890625 184.9443359375 92.47222900390625 184.9443359375 C 41.40122985839844 184.9443359375 -1.52587890625e-05 143.5431213378906 -1.52587890625e-05 92.47216796875 C -1.52587890625e-05 41.40121459960938 41.40122985839844 0 92.47222900390625 0 Z" stroke="none" fill="#707070"/>
        </g>
      </g>
      <g transform="matrix(1, 0, 0, 1, -9, -6)" filter="url(#Elipse_11)">
        <g id="Elipse_11-2" data-name="Elipse 11" transform="translate(36.85 33.52)" fill="#cecece" stroke="#f74549" stroke-width="1">
          <circle cx="65" cy="65" r="65" stroke="none"/>
          <circle cx="65" cy="65" r="64.5" fill="none"/>
        </g>
      </g>
      <g id="Grupo_8" data-name="Grupo 8" transform="translate(43.515 41.473)">
        <g transform="matrix(1, 0, 0, 1, -52.52, -47.47)" filter="url(#Icon_simple-wechat)">
          <path id="Icon_simple-wechat-2" data-name="Icon simple-wechat" d="M76.833,38.007A21.585,21.585,0,0,0,66.741,27.723a27.779,27.779,0,0,0-24.9.1c-5.323,2.732-9.768,7.627-11.028,13.584a17.446,17.446,0,0,0,2.219,12.928c3.463,5.751,9.723,9.422,16.224,10.6A29.876,29.876,0,0,0,63.416,64c2.748,1.064,5.2,2.787,7.859,4.067-.689-2.307-1.423-4.589-2.206-6.86a22.185,22.185,0,0,0,7.324-8.091A17.544,17.544,0,0,0,76.833,38.007ZM44.443,7.113A33.011,33.011,0,0,0,17.4,5.008,27.52,27.52,0,0,0,3.216,16.17,20.933,20.933,0,0,0,.608,32.218c1.413,6.005,5.584,11.041,10.646,14.4-.979,2.774-1.909,5.545-2.79,8.339,3.182-1.664,6.364-3.4,9.55-5.095a35.45,35.45,0,0,0,11.945,1.691,20.1,20.1,0,0,1-.832-9.631,20.437,20.437,0,0,1,6.508-11.6c5.633-5.271,13.613-7.494,21.2-6.955C55.413,16.4,50.517,10.514,44.355,7.116h.088Zm5.656,32.6a3.213,3.213,0,1,1-4.112-4.148c2.4-1.012,5.163,1.753,4.112,4.148Zm15.65.3a3.283,3.283,0,0,1-5.144.881,4.887,4.887,0,0,1-1.123-2.383c.339-1.495,1.371-3.045,3.035-3.117A3.271,3.271,0,0,1,65.7,40.018h.049ZM42.4,18.951c.026,3.136-4.161,5.095-6.511,2.967a4,4,0,1,1,6.5-3.006Zm-19.775.8A4.011,4.011,0,1,1,17.4,15,4.033,4.033,0,0,1,22.622,19.747Z" transform="translate(62.31 44.41)" fill="#00a7d9"/>
        </g>
        <g transform="matrix(1, 0, 0, 1, -52.52, -47.47)" filter="url(#Icon_ionic-md-person)">
          <path id="Icon_ionic-md-person-3" data-name="Icon ionic-md-person" d="M27.1,27.1A11.3,11.3,0,1,0,15.8,15.8,11.33,11.33,0,0,0,27.1,27.1Zm0,5.649c-7.484,0-22.6,3.813-22.6,11.3V49.69H49.69V44.041C49.69,36.557,34.58,32.744,27.1,32.744Z" transform="translate(48.02 110.79)"/>
        </g>
      </g>
    </g>
    <g transform="matrix(1, 0, 0, 1, -9, -6)" filter="url(#Icon_ionic-md-person-2)">
      <path id="Icon_ionic-md-person-4" data-name="Icon ionic-md-person" d="M27.1,27.1A11.3,11.3,0,1,0,15.8,15.8,11.33,11.33,0,0,0,27.1,27.1Zm0,5.649c-7.484,0-22.6,3.813-22.6,11.3V49.69H49.69V44.041C49.69,36.557,34.58,32.744,27.1,32.744Z" transform="translate(100.74 112.47)" fill="#7b7b7b"/>
    </g>
  </g>
</svg>
